# xmcd
#
# Track frame offsets:
#   150
#   19289
#   93099
#   112167
#   136278
#   154149
#   170659
#   195794
#   235828
#
# Disc length: 4089 seconds
#
# Revision: 0
# Processed by: cddbd v1.5.1PL0 Copyright (c) Steve Scherf et al.
# Submitted via: threefifteen 2.8.0
#
DISCID=6d0ff709
DTITLE=Michael Robinson - Leave them satisfied
DYEAR=2000
DGENRE=Country
TTITLE0=
TTITLE1=
TTITLE2=
TTITLE3=
TTITLE4=
TTITLE5=
TTITLE6=ask me no questions
TTITLE7=
TTITLE8=
EXTD=
EXTT0=
EXTT1=
EXTT2=
EXTT3=
EXTT4=
EXTT5=
EXTT6=
EXTT7=
EXTT8=
PLAYORDER=
